<mxfile host="app.diagrams.net" modified="2020-08-16T09:49:45.413Z" agent="5.0 (Windows NT 10.0; Win64; x64) AppleWebKit/537.36 (KHTML, like Gecko) Chrome/83.0.4103.116 Safari/537.36" etag="Zasj9_ZumacYTVswqqPJ" version="13.6.2" type="github">
  <diagram id="Bw-x-eEZN8RTNqvjJ6wV" name="Page-1">
    <mxGraphModel dx="1483" dy="831" grid="1" gridSize="10" guides="1" tooltips="1" connect="1" arrows="1" fold="1" page="1" pageScale="1" pageWidth="827" pageHeight="1169" math="0" shadow="0">
      <root>
        <mxCell id="0" />
        <mxCell id="1" parent="0" />
        <mxCell id="GO85wnK8KYQQa-It91qn-2" value="" style="shape=image;verticalLabelPosition=bottom;labelBackgroundColor=#ffffff;verticalAlign=top;aspect=fixed;imageAspect=0;image=data:image/png,iVBORw0KGgoAAAANSUhEUgAAAtUAAABxCAYAAAAaoV+6AAAgAElEQVR4Ae2de3AU173n56/5B9etsl11L1tAFalyHLv2UkluyvzhOHvXa9cts9pK7OvrVAhbdiDraypKQuFrW8FmtWBDbF9ssiS2iGEJBj+wxVMG8boIZCRkkABZROJhLAIIyRjxFhFCr+/W6cd0T0/39ON0T/dI366CHs1095z+/L7nnO+cPo8UuJEACZAACZAACZAACZAACUgRSEmdzZNJgARIgARIgARIgARIgARAU00RkAAJkAAJkAAJkAAJkIAkAZpqSYA8nQRIgARIgARIgARIgARoqqkBEiABEiABEiABEiABEpAkQFMtCZCnkwAJkAAJkAAJkAAJkABNNTVAAiRAAiRAAiRAAiRAApIEaKolAfJ0EiABEiABEiABEiABEqCppgZIgARIgARIgARIgARIQJIATbUkQJ5OAiRAAiRAAiRAAiRAAjTV1AAJkAAJkAAJkAAJkAAJSBKgqZYEyNNJgARIgARIgARIgARIgKaaGiABEiABEiABEiABEiABSQKRmeqHn60H/yWTgdAMYxNObMjSnSMZkVHSyhtq0l2TfmNGpnJMyU+OXxC9CuZhbzTVo9D8CxH5FSCPt8/wZGnPxawXMiIjsx6S8JqadNek3ziRqRxT8pPjF0SvgnnYG001TTUNtoQGRIb0m5lH2/Fk5F5ZkJE7ozDzDXmHz5tM5ZiSnxw/v+WD4B3FRlMtYaj8BjEpxwshJSUtxZ4OsnQvCMmIjJKWz6lJd036jRmZyjElPzl+QfQqmIe90VTTVNNgS2hAZEi/mXm0HU9G7pUFGbkzCjPfkHf4vMlUjin5yfHzWz4I3lFsNNUShspvEJNyvBBSUtJS7OkgS/eCkIzIKGn5nJp016TfmJGpHFPyk+MXRK+CedgbTTVNNQ22hAZEhvSbmUfb8WTkXlmQkTujMPMNeYfPm0zlmJKfHD+/5YPgHcU2Skz1fkyd3xCv+SlrQImEefMrmHzHCyHl+5yfec/cZOnOiozIKGllCjXprkm/MSNTOabkJ8cviF4F87C30WGqy07i8I1h9Fy8hg0rG8Mzt6904ETvLXzZ2oF5Lqb99eMDGOztw5G9xzC1rLDisYpNiMj6Hv8OFhOydOdGRmSUtPKFmnTXpN+YkakcU/KT4xdEr4J52NvoMNXP1qNk1WVcUugNo6erC7OkW40bsPiLAS0eg+hsbcd0p2uWncbRfvXQvotXsKoi3lZzkRK/AuTx9hk+Ppb78dTvPkep8u8QHnPSXgLej4+RfcySqOXiZ9SAqYt0PX6Op+Ymm33x804e36JgWtaIf9XLzUUhNrCFUM4WBb8Q7jMp5a/gHcU2akz1w882YMXpIY3hEFo3SxZKb11Al3K5YXS3Hs9u/Z7bhg1nbuLLfX9W3p99uE/93r4bWPNa9veWvHkKu8/dxLHa5uxrRChekZikCLvY0xEfyw6c1NQM3MCaCPUiG6P4GGXnNdn7iPL84md0FA3XMoLEyZpksy9+3snjm2imZX/G2jO30KdbAE2qSdJpovkluH4JWi5rEgh9N4JM9V/Q2g8Mnj3rbBg/vAJR7g9cv4YVFnObCUzZcezqHkBP13m86Nja0oQ157TcOTiA7ku3cKV3AD09t/DVpZvo7hlAj/i7tx/th7pxUmmlHkZvTx++utqvfHb1Wh++utSHSzf0Y2/h+J4jzmkPUdTMvOFVSPGxpKnO5NkQ80Zc14xPR2HlBZrquLSTlO9NrobNT5VFKofRq9TPg2jdGZb+5a+TXH7y95YUjZrTIXhHsY0cU115BT2CUF+/YmyFuc3914fuq8LM2n2mvtfdO5zhPNj7V1S9lSuoks3X0CuOGrqFhlWiK0cDlp0aVDLr18dPYWamz3QDXj56S7leX1en2j1E6d8tzu1H647CtU5bxWT+m69zY+yViQiu12PDPY6mOlyewTUQRjri01FY901THYYOivkaydWw2uCmVMQYwvEd+2Mqs/PnteTyy5/uYtWsqofw/x8hptr0S/Rch0SGOYLdlwXkYVw922U/+PC1DpwUvTmEKa4+ZHzXK13Qe5dcO/6F8n7JqkvoFg3alm4fP92nWHIAt9Dwp8ILlpk3PObxsaSpLtbC3C7d8ekorLxAU20X19H0XmI1/LsL6BKJU7bkdpUTyRtNeon7XjVBhL4bEabaGIQIQMJUl1RfRx8G0XnQ0kdaf7xcdhwNV4eBwT4c3GAy1MrnWp/toQGcbTyKh8uOY7/oa5JpzTZVXroB77uJHTTVRV2QxFcQ0lTHXSiH+f3x6chULunlXKA9TXWYeijGayVWw3+6pE1SIFJIU12M2ooizUINUWwjwFR/gYN6w+/QAI7tbPJn0sqasbS1F1cvXcGe1l58ecTBUD97ACvPDGLg8hX8Iac/9lFUHT6LWb9txr8qU+sdwppzg4r5rlO6hxgVV8n8Rjz2bBNe3vQlZjn22TaOj0pMUVw3rGuWzG/WZrX4HKW/TeajOv1eRabUXxd272SqTbMwJIRdfIzs8pFp1pQEjf5PFiM7bqb35h7S8mezaXpQmuqw87+5HEz6bCri3pOm4Qy/TVdwRUmd+O+v2MrZP0Kos0zlaFY9Y3o/QeWrXd7MSCLkFyPAVJsK+2fr8S8rv8LRy2IwYD+68/Sd1vtVX7pp6kPdk2cAo2i9cVjAZfbBmxA9qgd7e9Ggt2CXNeIpm7mry1tvAYMD6Go/j//7+3gMo9CQnchifU//cdNvxEPX+mB/P860mvuqZ8c8znTHx9Jiqh1Gtw/238KXh/NM9xioVdIf//gYmdKpzMiTO/pfzYudeC4zDsJ0TgHY6NpNBCOX+31seReOXRtSyjo9b4qucj0Xr2D1m8c5+4cLPz3W+ff78eLea+gyje1RWQ+j79oN7Nbrl1C+K1ytJ03DSl1rCDX31bVLKE8Qx6Txs9WpQzkq6plje9vwmPmpQML4Wu8nVxDhvDPiTLUCzsH8ZkNtwMzaHvRo0+L1nL+CD4MsDJOZWg/o6/oK/2ZjpM3fm8no/TewNqfFO9xCzvy95tfJy7z6QE9d1MbobH0mcPFJ79mz+GmCCkHBND6WZlPdh87u3B8jOk2F3bkO53nUI2YaHyMtP70mFmnKz2fgcnesFWzsjFw0ML1GLyvNqjK97ruB9ovG30maqsxc9umvE8m77M/YfF40z+TbBnGyxtr1sDD1hs7OaS9S7fRZHO9n6lonnAkzfUnjlxMzvfurE08Mo/vcDeOpQML4Wu/H8TYkPxiZptqlghCzdbx88KYyg8fA9evYsDxoi/ER7LqoVdaWwYjWAOp/ZzK6Lri5J7D76wEMXL2MVwvUHSR5mfdz/PHINRw7cwNd129g85vG4jglb3ahXVs4B+jDbpvZWHS2cezjY2k21SIV6uDahdqjuJL5f8byVlXjahkxhJM1PrtGueYjb5V5fIxE+kzTX4ofZufPawOQGzB15Xmc1qaQF/xO18XDR+g2XkYucXylQ5sWVFVSb/clLNefss09hIV7e3A1wfP/2pULSeRdfuRW5inAYE8PNrynLepU1oh5ZsZDvdgcU4OMHUv9vSQyVdJmbj1ln+qAP3xMk0GIQA/148TeE9oiTw2Y+vZpNHRbfhDqHiekekTXWVh7tTQL///RZar/0IYX5x7CH764hcHBfvVxhUTAjUJwEK2bP0fF0V5lvmp1Dmr7afsyU/Yp81ub57QewNXui1hU7lLBSaRXF2NiCz+He1tzzhD+2X3xGR+dn3kfH8tsU913rsOmFd+84BGAixfwCwfG5nsK+3V8jOrxsHnkf/91rLB085jd2Iue3j6cOdODtv0nAlY48nk2VkYumvjFwZtGBrxxBYstDIVeptfeQOb3CcDFX1yY5uQx06q79o0H2abmUuvR2LSak3btXhOrYZpqea2UdeBk5ofzMM7us3laok8XrJcWNNU6iXD2ThkvzvdF5TA4OIzBgZvYs9JoDbVLkzqg0LmyzEyXJybGO9+FmVrBUlKW/7o5LdV+C98Qjk9s4We6t8wgk999jq1fGZpMWmUSH0uzqR7A4UoHrerzt4uEDvXgPRNjO91H8V58jOpRUnvDEE9XZ8FWLfXLMU5G+dPahM1fGwivHD3uUEGb5wKmqc7P1CavmvPpjatYrg+mM+/3/9UIREw/kPPdV2I1TFPtkGdtdOhUP5j1iRtYa/PDWmgjs3q0EANNtZFfw3iVL/PF9dmyU9pPrf4b2GDqYpCVHm3AnOhr3Xv+K/sBTMpc1cPo1dc8FbOO7DqsCbcNNV/1omGT/cIuNNUOGbmsGYv2X0PX9UGY+1FbtUhTrfMzm+o800SZW2pxC3Xv6OcXbi9imJXHnAruCN7P5DcASdOOmUmcjMzpyH3tdVaPVtRdNXIr+1T7zF81ph9/BkbnVz2X8XIE+SU3/t7vI7EapqmWL3/N+sxnlr0elwDtOmcuuU+Ku/tH+TF8croPV3sHcOWqfXcLfZYPsb+iP5/Uul6YP9Nff31NXUZcXWZ8AFe/uoD/Y+6SMfcE9l8dxuDVi1gjZvIQm0Vk0/f1YhDDuNx+1rS6olo4ZSp5yzkyhZnfc0WS/Z4T6fGvnMRBMf93ZhMDFfvR1dmDY2d68BdTh82kGaP4WHo01c+ajxt9iw1l8htNdcA879VUN2CtscIGu3/4NQ1mMzI0hBvKMtoD0Ouh3P01rPT7HREfH19Z6GL8aaoD5n0TV7M+83kXr8dFrEUvfiVjN0J+Udym2mdgMn1z84ki3zU1Qz1w+ZIyqDBTYedcz6iIBi5fxMumRyXO55gEnC8NIXyWtMLv9eNG2/Tg1ct40zKDSoZZAo1RfCzNZrkXm19x0I+lQnF6bOelEAp6THyM6mHWTt+pv8hXLiHkPzuOcTKyS4/xnlGWiTQ6j2nIPo4t1Q750Uk/O3sygxSRwFZoQw/O95VYDVvKwDVOMYj5/cTyE1zMZrn3ChY7sMrqbpfji5y140VfYR8jeEex0VQ7iCMngK+dRuv1AZw1zZecqbBtxPPTur9mCsmvDx/JVOb5zsn5Tq9p83mcEFKhvsv9e7IfG7fXWvukZ7eAsaVaL5jMpnoIR6ut3NTjfrpPXxlJTH3hXBi6x0n/Xv/7WPVmNiuXuzHbmlfEQiYJWKQgVkZWJpa/3ztrPEXqO33avl/6W90wdb1mS7WFoWv+yuqm5TTLUQMem2ufz12v7zc9AY5PrIZpquXr+3cuolsEWNmc9bnidGY0Y84T/CRo1JwG/W7C3tNUey489mOqUwuqjal+WF+KXETMtHQ6TbXVlGW3cJl/gIgMYB4QKlDSVOv8zKZadEG6kjsl49x2tJi6al47/oV84eo5v+jpjHm6OHM+hBjQaTYlyZlRQWjbXOAn6bW5gQBDt9BgWSX24We1FWRNtRNbqg39e4vlEey+bADstZlXfnr1NVwdGoaypkLgaWD9psv78YnVME11CGXLFzhoqkvs9KnU1WIiCF3Gdr4oQP3hLf9416l+PT2ZYe9pqiWCnN8gN2HZyT70XO/FLlMllP8c/8LQBeJnn7TCLzOAVCRsqB+nWs9j/aed2N3epyzOMzhktJTRVOsaMZvqYQwOAWJVqzPHuxV2W1t7cN684MkoXmzImPrSrK/zaDjXbwyKHbqJXTHOgZ60PJlVnlgXfRgawPkzl7D1006sP3wFZ66L/KlqUK+gaKr1fOp9b21AGLh+Aw37O7H+024cPG/Wqt0PG+/fkxVbifrPep3EapimOgRTXQ91rJiew4GB6704eFjo8zwazoi6egjtX/agRz+EplonEc7emuGS8Ld0n2pLARTEIAc5J2x2IsJhX1PqespsKva6G7x6CWuPagNC2VJtipvZVN/A7rq/KosZ2VIc7EPDB0EXOJKvrOPX2yGsONVvtKBYIQ0N4ETMq9TFz8glznlXpRzG1VOnsdU0nzxNtQtPS12il59qa7RVoKa/B/txpNpmjmCH6+nXLcQ+sRqmqTbVG8F0qeonXzmqlgHTzX2vaapNGTeEl4XIxH6/g6ZazVCJLPzmtuHD1h50XddGvF/pxZHDp5TZU8oOiQU61PfPHWoNqYCQKVyMc2Nj+dbXOKPPEHBRXWL7seUdaGjvxQXt/csXb+Dg4dN4sUArdTrlx9gYZRkNsYJiNp8eobHWTixyml4z63wj5k73KfN+Mhi53KOY9nLvJRw536flRzFDzxVs/UidPnRluzFbxZFtLtcqIFu7uCSa99w2LD98Be0XjZmoLpzvwcH9X2JWzHnZjqX+XmKZvnMB5/Sysjd5s6Yknl9WXm3AzI/O42DnTVzWmF44b5QBWQMaaapFlghv04US237uIW0JTaNwp6lWWYgoxxaXrAxqxKZY00OW7jEkIzJKWv6mJt016TdmZCrHtGj42XgrXSuZJ/HiZhK82JZIb1TbyO1T/YfTaDhzEz2Dw+i7KVpQBqGv1RLWcs0vH+1X4+L4i+wwlh7pQdfVm2g/o865fK5H6x/seI5cxtTFnW8vEp3vc37mPQZk6c6KjMgoaWUKNemuSb8xI1M5pknnt/xkP3q1UYjXvmzHY5YGspKKbnRlJv8Yxum6pkT7DME7im3kmmo94MoKiTeN/qa2o9eDZYZMy7fbvKJljZi39zouZ4bFDqOn/S/2U1Pp6Y5wL4Tkt8Dk8fYaIUt7Lma9kBEZmfWQhNfUpLsm/caJTOWYJp1fyeZrho/CMHou92gDacWkAqIBU9yBug10f507fWmEnsavVsXxUW0j31QrgWzAy0du4MzxLsyzTIsXJBj6OStbe5V+bv/m9ZqvdeDI+WvYurYl51eefs1C7IWYCvE9o+E7yNK9IiEjMkpaWUBNumvSb8zIVI5p8vk14OWDvcqMXCKt9tswer6+kLXgnV8dFep4+/TLvztKTLWc2AsV5EJ9j5BNob5rpH8PWbrnLTIio6SVA9Skuyb9xoxM5ZgWC7+S+ceUgbTHMgOWByAGfR873o3lKxtjewIfRK+CedgbTXXCHkn4FUaQ44WIgpzHc3ILTbLMZWLVCRmRkVUTcf9NTbpr0m+MyFSOKfnJ8QuiV8E87I2mmqaaBltCAyJD+s3Mo+14MnKvLMjInVGY+Ya8w+dNpnJMyU+On9/yQfCOYqOpljBUfoOYlOOFkJKSlmJPB1m6F4RkREZJy+fUpLsm/caMTOWYkp8cvyB6FczD3miqaappsCU0IDKk38w82o4nI/fKgozcGYWZb8g7fN5kKseU/OT4+S0fBO8oNppqCUPlN4hJOV4IKSlpKfZ0kKV7QUhGZJS0fE5NumvSb8zIVI4p+cnxC6JXwTzsjaaappoGW0IDIkP6zcyj7Xgycq8syMidUZj5hrzD502mckzJT46f3/JB8I5ii8xUR5FYXpMESIAESIAESIAESIAEkkiApjqJUWGaSIAESIAESIAESIAEiooATXVRhYuJJQESIAESIAESIAESSCIBmuokRoVpIgESIAESIAESIAESKCoCkZnq5rYL4L9kMhAKZWzCiQ1ZunMkIzJKWnlDTbpr0m/MyFSOKfnJ8QuiV8E87I2mehSafyEivwLk8fYZniztuZj1QkZkZNZDEl5Tk+6a9BsnMpVjSn5y/ILoVTAPe6OppqmmwZbQgMiQfjPzaDuejNwrCzJyZxRmviHv8HmTqRxT8pPj57d8ELyj2GiqJQyV3yAm5XghpKSkpdjTQZbuBSEZkVHS8jk16a5JvzEjUzmm5CfHL4heBfOwN5pqmmoabAkNiAzpNzOPtuPJyL2yICN3RmHmG/IOnzeZyjElPzl+fssHwTuKjaZawlD5DWJSjhdCSkpaij0dZOleEJIRGSUtn1OT7pr0GzMylWNKfnL8guhVMA97G6Gmug2V/287qho7g5vHlk40SRruHeu2yaVB8vudRCZE5PQZ3/eXscnSnRcZkVHSyhVq0l2TfmNGpnJMyU+OXxC9CuZhbyPUVDei/LsppCf8Au/sMwJ14LNW7PrU/V/1h4vxT2PTuKd0K2otxnbH5jrUtBjXdA5kO5b8MIVUeiL+S1l1znWcz/NybbljhIji/P6R9N1k6a5FMiKjpOV5atJdk35jRqZyTMlPjl8QvQrmYW8j2lR/Z35jlnlsql6GGVPnoPz3lahYrv17dTomplJIT34Bi/X3TPvVO85YrrEY99/1OBZ+0pH1fm5At2PmHcJUP4E36yRazC2mPvd7/AtRiCiM60hfo6EeK5ZXYuXWds/paWpsxsertNit2YdPD/u/f+l0m2ISB8ummv9Q9PvRbpd7373b0LlJ0xnti/fe34960/2EyUa/VhyMajdXoWL5FlQdcGGk33vLKezesl3jVYWPd36BA/pnBdjHwUiPj+99DqtjqPfU0OAxFuRtKQ87sa1SlHk+9FwAhlbdxK/hE9gg6gbPZVon6uv2YbVWNq7YcAi7ZZ5uSzKPn1+Q/Klrczd2SN6/VU9R/y14R7GNHFO9sxLzluzBTs1kLXsyBcNUd2DnnhOWgkoT0PbF+E5qHGZ+5N347nhjCtKpcXi0otm5i8jGeYpZ/+acOvvvjVGAQkhRC9bt+rXrxNOAFFIpc5zyZOqWZiz5n9/CmJR6jjhP+ZeeiCnza2J7ElBYlp3YtrwU96TVe5+2Mg8voa+Vz6iMdFZ2++8uxuaItVhYRiewZv6PMFa518ko3+7CqE0wnYVJYyy6Ej+0JzyO8nUO5UbIzArLyI2J0+fOrFJjvocZy/OUhyHzcitf3D4vDt5qHJqqF+E7nvXsFLvo34+VaUMNyh8Zp5Z3Hsq0ppq1mPHt22zKx9sw6em12BbDj8RY+QXJny3NWDpjEtKKNp/BsiDXiPEcwTuKbeSYasUcp3HPrO1Ky5sw1X///H8o3T0+Kn8A6fQDKK+2Mc7CePygwuevLLV7SSplqrR3V2HFFqPgqnzuLqRSD2GhW2tiDKISQnKrdKL7/ATWzHlQMcdjJkzE7Z5MdSPmTU4jlRqHf5q/Ddu01oQDn+3D20qmTuO++Z85/8CJkHHBWIofFT+ZiHQqjfET1MrDzVTXVzyBLI1GyCGfXgrGqKEGL3xfVJS3YfyEOz3ceyc2zX9AqRTGPrIYq2tOqRpqOYVtShcw8aTJodwImWXBGEmku3blM8qPlbGPLMTyLXpLfgc+3fIRnrpXzZ/TVhbmR0g+vXn5rBh4q/ehl33iR5+pvpGIoxc+QY6Ji2ntuoW4X/woHjMR48XTYTdT3bAB00SDztgf4YV3jaedRn2SwtgnNxS8oSYufkFi3VTzPp6YkFa6t45XGsdoqkX8xDbCTLVR6AhTPXHq29mPvz9swmeWwqh6wYN49I+53Q+aWmwMuOlc1bAYrazrFyzGqsyv21rM/kYK6cfXuD5ar91zpKCPmUUGEluQjCR9jsn03D9nJ2qqxVMCg6HT9ev/OE0xkw++0WKT7hNY9qQwmfH8gCkES3MB9sSSgzigtUC7merN8ycnoiIuBCOjYn0QL1QexSYv9757GR5Mi65fi7Epk3eNH8bN2ueph5ZhlynvO+lU5v1CMJJJX/OBDZimGJZF9qwa1uLH4vO7F2J9xKyk7kNLW+J5a+lUnoqmp2DmM8nIy/nYF56pqYHm+wvxQd1nyliq/Ka6HcueVH9wv2TXyNZ2Akunis/vxQufmMqCAmi68PyC3F8ntlX8DONFuTnhZ3hzRweE10qlaKpF/MQ2ok210f3DJJ4DazDjH1/E21vUAYsrfzUTC7ZZBi+uX4T7xkzCzNVHnVs/94oKeQpeEy3RLVsx+7mtxrEfPY/bU3+DH1d8nndgZPW7z+OedOFbWUXg8xWOUX0mTJ54pJ7pj648XXAz1W147aEUUnfMNv1oMcVTFHa7K/D9VApxdLUpBEtRaI359otYoffN92Wqp+C1vRZeBaggzBqKnpF4cpTG+JIKrNe6f3n5QbHrjSlIpdKYttLpB7Q22LgAFUb0jOQ00LTyGaVFv6QitwFCj/V7pcKMPIB5O+W+S79elPuk81buXflRl8Z9CxrhRc9R8vJy7YIzFfWH6P73ep3WMKU9Qc7XUt2yAdNE97kfvu/c4KXU3ynct+BQQevJgvMLVA9swLTUbZg065PMhA001SJyxjb6THWbEEUKP3jWNFjROohLGbx4J0oWH8zTityJ+kZ1sOKON0rxYuZXbSdWPXMnUnfPxKvW61r+nvfEeLVP15j/ipc2/qVgGViE30shGfYxuzbuxBbzwEIvpvrA+yhJpXB76fY8afZQmAYqQNzNQSFYbl63M1OAKTHxaKrVLkjxtyBEz6gNlZXZedWLCanfugW//c2rWJHnR4daYRhPwMLOE/r1omfkrmU9LXb7+q3rUP7r/Ky8MLe7dhzvJZ13c9sJLPlhGqnvqk8GioFtwZnurcUHO8wTBnioBw7sxx/nz0HZqjbn+sRLvRRBfVJwfoHuoRFrKrMbG2mqReSMbdSY6qa6o1ofKdVU5310rmQqrxVpHV6YYnrk2fA+StLj8NQqvUWnDsveya7wlUqkZTtmjk1h7OPvF3xQhAh/HBVZznd6Kby0VoN8LWTiuitmiD6d07HU7jF+oMLDmwmJhaVHU52Uwi4ORuGYkE4snVqYR5txMMrJj5L5JBzm3vKdbNqTzrt2+XTcnroXszeqT1GKgW38TD2Yai8a91IvebmOz2Pi5xcs7yWlnvFbJgjeUWxFbqrFlDha143Kefj71D/g2Ur178X/YgxU3CW6c6T1wQe5pvrdebPwZpXp15cPU930wWyUvG709V0/517cPnWtMchh5xLcp8wkMBPv1BuiFf2Exz+5NrsF0mcm9Csi/XghJP11rHsPhZfadz2Np1YZ7OzSHFelEwtLP6ZaexR64LNDWVMRFnLqqDgYhaKHlq34X6KfMPtUeygvWrDwB2Lw14v4sEDlmF054PW9ODTpNW3NB6rwlGhwKd2e6VIYip4jjkv8TMMx1Ttef0gZFP/LtfnrHPi3X2AAAA9uSURBVM/x9Mg9fn7B7pemWkTO2IrcVF9A7boKlP58AX6b1bWiHI9Mno2FS61dPNajcm+uqVZFMQ4/rPhcrTw8m+p2vPX4j4w+q6KVeswTWNJgEqdmHG9/aJlp6rJGzJvhMDjKYwaUydAi/DLnh3auB1PttTJRj7sLszea2I9Ulp5MtdYX/RtTMOW+O7Vpj8zTxmX3iwstpjbM49CbV90433cnNpWLwWFp24HMzucF018cjMK7hw6sFzMspcaBs38Ei78Ri068VzoOqbGlWGGaY11ez7Lpcj8/fg3Lm+oDn5gb4Nzv2Yib/LHx8wt2DzTVInLGVvSm2l7UqnEec/8iVDZZheJgqs2DG7ya6t0VeDAzw4cYNTwpt1LR5qv+zuQlWKEbjpZTqDf3LdbfL9BehN+em5VVxH+HaKr1OZnzduuJgG8sLD2Zaq2C0edb/rBZW6CjE/U121BeIqbn05/eRBvnOBjJmhB9+rj0D983njpFoB89H8bBSP9u//sWfKQ1YiyePwv/7a7bkL7jfvwy38DuCNn5T3+MMyC5cGjaOA/fTN2JHy/PnppQVs9BGPk9J34N+zfVO9ZrDW+/X4wZD38LY9J34numQXh+GcgcHz+/YPUATbWInLGNIFPdjsr39EVAVONsO/uHNlDRbL4UUfg21aJFYWJm5oDalaWYYjNXctPy6cq0Zi+VL/KwEEUwUfvNyCL8fs+J5Hia6mBx8GSq27DipV9h+q9X20+Blpk6yt/CR0F0EIfeZExI7bp5Snex9L3PY5X5qZOLIQrCRj8nDkb6d/vfq+VrZgGmsQ/iJ795F+v02Wki5OQ/rfZlaiJ5t9Ri9t0p2P2Qk9FzWMzcrhM/U/+mWjWE+hO8cbh/2oLsrqAF1HL8/OzzilvcaapF5Ixt5JjqA2vwaDqFMfe/hSrNOBumuhOVq/UpYBxaqs39Jr20VIvvG6tN83aoGs/Nsp8sflP5P6hzOG6ch6fzTEflJtwwPxfhD/N6ga8VoqmuXvAAUqk7MfOjYAVD0HuIhaUnU+2Bg8Y//8wqHq7jUvHEwSiYCelEzfJSdQ7WAhpqob04GAXVfNZ5h79A9YaP8YJ48iGmN3sjnkWYstLkosdk8ta6G+nTtFruIZie5fOuH67xa9i/qTburwOf7tyDt+c8jvFpMT3nMofGiOiYxs8v2L3RVCvFd+a/EWOqlcEFmdXPLC3VmuEe+4iYx9ZqqrUR/k9uMIymB1MtBiS6z4uszXMrDPuB9/HokxsyA0+MzBxMyDLnJybzejDVHKhoo4+wTHXbdswUA/EmL0G1pRKX0Zf13Dj05t+EdGLTG+ry5unJ87CmQC3UOqs4GOnfHc6+A2tm3xvLohlB0p843tuX4D6xZsGCRqMeMuVJ/3q2KTdM1wvCzO2c+JnKmGqD14F1c/HNGNY9iJ+fwcAt1ubPaapF5IxtZJhq5bGZuUDKNtVqgTQO094RqxdaTbWaEdMzqozCzNZUt6Oqcg+qP92H1f9einvSXlZcUk2L2mLeiPLJ0/CWafCJWZiFfC3CX8jvc/wuD6a6eVWp66IT4vqcUi9IgRhOJeQYX60Sj0Nv/kxIJzYteBBjUimM+f6SgrdQCX5xMHKLm+/PxYJYrnPKB9Fp+Ocki3cb3ngkjdTf/A88nzO4Xu3zu2DqXUil7sKPX9X6AK83ZpzyHaeIzHX8TMMqz/QFx57HexGxsotZ/PyC5TOaahE5YxsRprq24gmMyVpq2GSqtaWGjemJrKZaNb5ZqyfZmuoLOLBnD958+ntK5ZuatAib3DKcMseyYb4rn7sXJRXZA1DsMlfU74nwR/0dnq7vxVR7qqjDKkz9FyqxsAytpboKT7mtLuamcQ+fx8HIj6nODErMKkP8a8GT5h14xcHIe3rF1KX7sPr9/c6r0Cn3pZatKfNTP4f79f7d0cQhWby18iul9+31sE8g4/iZutcDTY3HsHHNFlS5NG7FYRTj5xcsr8XBKozyQ/COYit+Uy3m9Pz2M1iW9bh2A56a8DjmbWzOWpVKDYTFVCvGztIX18FUq+d3Ys3su5AyD2y0rTi0lRV/UIEd+uefLMQ3756HygIvUGIVoBCS9b1Y/vZiqtu0+W/vNi2wo/PU9yN8mfKc2Hgw1aLyqN5QhY925ykoNf4Tn6uNVA9x6M2rqW6qXqwOSpy8KLPEeQ5vXWcR7uNg5P0+tZa79DNYlq/s8vQDOI8eI+Rrvddk885l5FXP1vss5N/xM3U31bvemKJMkzltpbqojj0ftlTbc8nVpTiOploo39iK3FS3Y8XTj6O82ppBOtHU0olN8x9AOtPPWhPEgTWYUbI402dS9I1O3TEbSzfXoapRu87eWvzJvBiMpbBXCjg3U620kN+JaSv1lRXF94tMn8aDb8T76E6E30+miexYT6b6Ana8MQVpm2mm1HRp87qmHsLCfAbSEsOw7ikWlh5MdbM2laPxhMZaILZjxYxxBekDGwcjTyak5TO89N0UUukHMG+7lU9h/46DkZ88oC6Ikb/s0o959I/mMq+wHL3eU9J5W+/Dk54jKuOsaXH6O36m7qa6WWuAST+0zGjssnLTj8lMl1sYDcfPL9h90lSLyBlbcZvqQ3WozDHUQhhiFP8zGJuehJkf5Olu0bAWP75DqygO12FhySR872n3qaEUEd2Rr7+VmLP6TtupkcRKijlG35qpI/5bhN+pYCzo+x5NdXPLZyifnFbMz+xK08qXLUfxwXx1cNk3n6uNZRBoLCy9mOq2Frz2kFi6fRweXbJfm6NaKzQPH8Hq58RiHSmMnVHl8kg/WEFr1lEcjLyYEPXHWn6jaL6PKF/HwcjX/bRsx8yx4gfIRDxh1VPLKVQt+Zk6a0qMXWj83E/ieVvqAC969nP/URwbP1MPprpNb4RJY/xP3jUa0hTenajf+i6emKDWNbmNdfJlYT7u8fMLdn801SJyxlbcptpS8KiC1UbxuxlqzaiNfdI8Fd4JrCqdhLSYAP7ptdhm+6jzEOZNFn3epmOp7ecXIPp4p8dau6Togm3EPGEQHT/Xj4tuL8KfL3NH81k1Sr9xFyaa/01QV/pL3zEx6/1HFh3KTV/DVvzy27dBzI2rH/+3Y0Qc0rindGtBFuiw4xI5y53v4BEzM/H671QOY/4um2fpBxbNNNTghe+rx6bSd2K8cp3/pI4JSI2gFRU/mJOlH6Gx8XeIHxRp3D7BzOif8dpOnZGej63HmI83Xttq0rb80a/vbx+5jkJIa1PdJ5k8aOhpIm4X/fIF6wcXZp4A2uWVJL1XDLzNvGiqc/PTu7828qdar2hazJR12uf//Z3s2Y1ajmLFLG1slKmMUMsMUb88ghfW5WmMCyEvmWOrvy4GTVYv+uecslath2/D32bVU3PwbkScdF6ye8E7im1kmeqWZiydMQljJvwMS2qsXUKMTNlUtxOzJ9+Ge0r1uauNz5rbTmCN1opn/4hIG9yVmmy7mIsy6GnstPzfr/fjnFCKpTEsmCCEJCtI/+fXYdHPf4XpHv6VrWpzSF8Hdm74GOW/Vq9TOv9jfLynw+FYc0yjex05y71VKPPATHBdVGV3n6L1ZTsWz5+jsZ+D8t9vx8bPCsctckZVKzzpavrPX8WKvTojbXEcj2ydNalfT24fOaPQKrgOfLrFrKdf4fl/r8TqradieVLkvxxS41Q8vNX07lr1KrL1K6e3oNzynVdoput+560+mf5SFXbZ6P/AZ/uw+veLUaqXAb9Zioo1lqd6NuflYyDzWaH5BUmrqkMv3FdgXQHZBbkXwTuKbcSY6gOfVGDKXd/ClPk7UePQgtwsHlO+U4pJdz2OcnM3gpzg64/Of4o/5CxzXocX7hYtM1ZT3YH1r/8I4z0tGqH19xajvdOT8NQ7hc3IQkhBRMhzcisyssxlYtUJGZGRVRNx/01NumvSb4zIVI4p+cnxC6JXwTzsrehNdVPjfrz96+mYPn8jthx2CIpipl/Bo4/PxMIPxVzVDseZ3294HyX/2X7GCfGdq1fVZ7ociJbv8pJJ+Mc5eQy9+drKa6NFXDxKnfjdp7GkxkO6cq7j/xwhIr8C5PH2nMnSnotZL2RERmY9JOE1NemuSb9xIlM5puQnxy+IXgXzsLciN9Wd2LbVvZW3vmY/tukze4RgSjPBO3wQy//3dJQ8WYEPAnXj6MD6JRVYEejc4AIUIsrcQ5g8RuG1yNJdh2RERkkrb6hJd036jRmZyjElPzl+QfQqmIe9FbmpLmwQsoPWiW1Ve7DTqXU8wQZTiCj7XuLkWNzfTZbu8SMjMkpaeUNNumvSb8zIVI4p+cnxC6JXwTzsjaY6webXr0i8Hi9E5PVYHpc/o5Nlfj5CP2RERkkrR6hJd036jRmZyjElPzl+QfQqmIe90VTTVNNgS2hAZEi/mXm0HU9G7pUFGbkzCjPfkHf4vMlUjin5yfHzWz4I3lFsNNUShspvEJNyvBBSUtJS7OkgS/eCkIzIKGn5nJp016TfmJGpHFPyk+MXRK+CedgbTTVNNQ22hAZEhvSbmUfb8WTkXlmQkTujMPMNeYfPm0zlmJKfHD+/5YPgHcVGUy1hqPwGMSnHCyElJS3Fng6ydC8IyYiMkpbPqUl3TfqNGZnKMSU/OX5B9CqYh73RVNNU02BLaEBkSL+ZebQdT0bulQUZuTMKM9+Qd/i8yVSOKfnJ8fNbPgjeUWw01RKGym8Qk3K8EFJS0lLs6SBL94KQjMgoafmcmnTXpN+YkakcU/KT4xdEr4J52BtNNU01DbaEBkSG9JuZR9vxZOReWZCRO6Mw8w15h8+bTOWYkp8cP7/lg+AdxRaZqY4isbwmCZAACZAACZAACZAACSSRAE11EqPCNJEACZAACZAACZAACRQVAZrqogoXE0sCJEACJEACJEACJJBEAjTVSYwK00QCJEACJEACJEACJFBUBGiqiypcTCwJkAAJkAAJkAAJkEASCdBUJzEqTBMJkAAJkAAJkAAJkEBREaCpLqpwMbEkQAIkQAIkQAIkQAJJJEBTncSoME0kQAIkQAIkQAIkQAJFRYCmuqjCxcSSAAmQAAmQAAmQAAkkkQBNdRKjwjSRAAmQAAmQAAmQAAkUFQGa6qIKFxNLAiRAAiRAAiRAAiSQRAI01UmMCtNEAiRAAiRAAiRAAiRQVARoqosqXEwsCZAACZAACZAACZBAEgnQVCcxKkwTCZAACZAACZAACZBAURGgqS6qcDGxJEACJEACJEACJEACSSRAU53EqDBNJEACJEACJEACJEACRUXg/wNlJae2/1BNjAAAAABJRU5ErkJggg==;" parent="1" vertex="1">
          <mxGeometry x="51" y="50" width="725" height="113" as="geometry" />
        </mxCell>
        <mxCell id="igkjnjU97084CTpOAE1u-4" value="0" style="edgeStyle=none;rounded=0;orthogonalLoop=1;jettySize=auto;html=1;exitX=0;exitY=1;exitDx=0;exitDy=0;entryX=0.647;entryY=0.023;entryDx=0;entryDy=0;entryPerimeter=0;strokeWidth=2;endArrow=none;endFill=0;" edge="1" parent="1" source="igkjnjU97084CTpOAE1u-1" target="igkjnjU97084CTpOAE1u-2">
          <mxGeometry relative="1" as="geometry" />
        </mxCell>
        <mxCell id="igkjnjU97084CTpOAE1u-5" value="1" style="rounded=0;orthogonalLoop=1;jettySize=auto;html=1;exitX=1;exitY=1;exitDx=0;exitDy=0;entryX=0.5;entryY=0;entryDx=0;entryDy=0;strokeWidth=2;endArrow=none;endFill=0;" edge="1" parent="1" source="igkjnjU97084CTpOAE1u-1" target="igkjnjU97084CTpOAE1u-3">
          <mxGeometry relative="1" as="geometry" />
        </mxCell>
        <mxCell id="igkjnjU97084CTpOAE1u-1" value="4" style="ellipse;whiteSpace=wrap;html=1;aspect=fixed;" vertex="1" parent="1">
          <mxGeometry x="100" y="250" width="60" height="60" as="geometry" />
        </mxCell>
        <mxCell id="igkjnjU97084CTpOAE1u-2" value="g&lt;br&gt;1" style="ellipse;whiteSpace=wrap;html=1;aspect=fixed;" vertex="1" parent="1">
          <mxGeometry x="40" y="360" width="60" height="60" as="geometry" />
        </mxCell>
        <mxCell id="igkjnjU97084CTpOAE1u-3" value="d&lt;br&gt;3" style="ellipse;whiteSpace=wrap;html=1;aspect=fixed;" vertex="1" parent="1">
          <mxGeometry x="160" y="360" width="60" height="60" as="geometry" />
        </mxCell>
        <mxCell id="igkjnjU97084CTpOAE1u-6" value="" style="shape=image;verticalLabelPosition=bottom;labelBackgroundColor=#ffffff;verticalAlign=top;aspect=fixed;imageAspect=0;image=data:image/png,iVBORw0KGgoAAAANSUhEUgAAAEIAAAAxCAYAAABu4n+HAAACaUlEQVRoBe2YbZHCMBCGawENWMADEtCABRzgAAcoQAEGMICDesjN0+vOJJ02H5ukdz92ZzotNN1kn7zZTTs4s4nAYBx+CRiIWQkGwkCEScEUYYowRYQETBEhD8sRpghTREigpSLGcXSXy8XdbrfVTkr/fD6f7nw+u8/nU/qoun2THAGAYRiSA/9+vxOwVJCAPZ1O06GOrPDBahDv93uCcL/fo10/Hg93OBymtkDjuZjl+o35KLlXDeJ4PDqOLUMFKIDgOTPTOSDwd71ep7b46G1VIFjLBMV5zV6v16QClIAiMIGSUgRtAYB/gPS2KhApNbBcSKKsebESEDyzlyrUIJjtmBoIwgegBSGqaFWRZBzLsxqEzNRasMtO/N+liuBZ8kosD/n+tddqEKx7gio1DYjc8lw6Fr+9CoTINVUy/Y7kWgMiZxmKf+1ZBUJq/Fa1iA1GA4IdJvlIAz42Fv+eCgSlkIHllEC/M641IHiO/qhAvUwFgpn5CxBA7GUGYiZrIAxEuMhUipBytleyZNNGTuq5u1SBkPKpKWeaqlHTXzjv279UIHDHDGneCjUgasr1dujhHTWInP0/M7k85HsEwfn3Yp/ltO81YajxX2oQMkuxAFBN7hHbI/Be03MzBSI1CHnfiC0Pf8ZT11tAUx9/4vOcf1cNgi5EskDpZamPP636rQKRo4qage6lBsZYBQIHvb4VsHdADSTXPawaRK8By4vdVu5oDacaBAMiEVIdNBustYAIvqW/tT6W/zUBgVMGD5AW1tJX7niagcjt8L+2MxDzzBgIAxEuUlOEKcIUERIwRYQ8LEfMPH4AZ3iREnuawfoAAAAASUVORK5CYII=;" vertex="1" parent="1">
          <mxGeometry x="30" y="250" width="52.53" height="39" as="geometry" />
        </mxCell>
        <mxCell id="igkjnjU97084CTpOAE1u-7" value="" style="shape=image;verticalLabelPosition=bottom;labelBackgroundColor=#ffffff;verticalAlign=top;aspect=fixed;imageAspect=0;image=data:image/png,iVBORw0KGgoAAAANSUhEUgAAAEIAAAAxCAYAAABu4n+HAAACsElEQVRoBe2YDbHqMBBGawENWMADEtCABRzgAAcoQAEGMIADPPTN4fLNNJnmp5uGeffOZiYT2qbJ7sm3m5Rh9PImMDiHHwIO4qMEB+EgwqTginBFuCJCAq6IkIfnCFeEKyIksKYiXq/XeDgcxtPpNDvJ0pvX63Xc7/fj4/FY+qq5/yo5AgDDMCQNfz6f4+VyecPCQSrv3O/3WcMBu9vt3nW2Q4ebzSBwBgjn83nWPFaX56pA2Gw2wTWOx6U0bty/9boZxHa7HalzRRBw/Ha7BV1QCVAARDtXjsfj+zl9e5cmEHKUNi6sslY+F+tABMZcmACAZwDpXZpA5NQgaZecIHfgbCq0vqUKMwikjgNzatDqsaIlWQtYCoRUsdaOJNvi1gxCKzWX6OJJctcKrxQI3mUHSeWh3NhLnplBEP+pJLfEAM4fKCuXR0rb85L5Un1NICTX3CqmJpzeV1iUgNaE4XRcy28TCDmQyw8lY1AAqqKW8gh9cwm1NFfNcxMIZXqAWMoUQi4kpmMDgjDqVUwgCAkMs4CwQMB55iuFUAukr4LQDkE41CpBzv0ZEAontkLLlvsnQOjMYYXw34aGtrOaHKFwaIGAglBEz9OlKUdo+yydI9SvBQJq0Dil+ZRPLK0JhKRa+qDSl+XSxBg7ovxSo8D43dprMwhWOXf+V0iw5eFATU0ZrRxjSbKpMeP7ZhBapdRqA4C4XlJj43TNdtvzMMU8ZhD63kiFB4BqVDDtI8enrZRF27OYQWCUJFv6VmhxIPfnT8u48btNIEqqiCdbev0tNWBXEwgG6PVfAYkRNZCUv1GaQfQyWB92qWS8NpxmEBhEwmN3WOvAg/NrjlcDbRUQTKRdombSUp81xyrNpeergdCAv7V1EJ+VcxAOIgxiV4QrwhUREnBFhDw8R3x4/APPCXHj2Nv37QAAAABJRU5ErkJggg==;" vertex="1" parent="1">
          <mxGeometry x="320" y="250" width="52.53" height="39" as="geometry" />
        </mxCell>
        <mxCell id="igkjnjU97084CTpOAE1u-8" value="0" style="edgeStyle=none;rounded=0;orthogonalLoop=1;jettySize=auto;html=1;exitX=0;exitY=1;exitDx=0;exitDy=0;entryX=0.647;entryY=0.023;entryDx=0;entryDy=0;entryPerimeter=0;strokeWidth=2;endArrow=none;endFill=0;" edge="1" parent="1" source="igkjnjU97084CTpOAE1u-10" target="igkjnjU97084CTpOAE1u-11">
          <mxGeometry relative="1" as="geometry" />
        </mxCell>
        <mxCell id="igkjnjU97084CTpOAE1u-9" value="1" style="rounded=0;orthogonalLoop=1;jettySize=auto;html=1;exitX=1;exitY=1;exitDx=0;exitDy=0;entryX=0.5;entryY=0;entryDx=0;entryDy=0;strokeWidth=2;endArrow=none;endFill=0;" edge="1" parent="1" source="igkjnjU97084CTpOAE1u-10" target="igkjnjU97084CTpOAE1u-12">
          <mxGeometry relative="1" as="geometry" />
        </mxCell>
        <mxCell id="igkjnjU97084CTpOAE1u-10" value="4" style="ellipse;whiteSpace=wrap;html=1;aspect=fixed;" vertex="1" parent="1">
          <mxGeometry x="540" y="360" width="60" height="60" as="geometry" />
        </mxCell>
        <mxCell id="igkjnjU97084CTpOAE1u-11" value="g&lt;br&gt;1" style="ellipse;whiteSpace=wrap;html=1;aspect=fixed;" vertex="1" parent="1">
          <mxGeometry x="480" y="470" width="60" height="60" as="geometry" />
        </mxCell>
        <mxCell id="igkjnjU97084CTpOAE1u-12" value="d&lt;br&gt;3" style="ellipse;whiteSpace=wrap;html=1;aspect=fixed;" vertex="1" parent="1">
          <mxGeometry x="600" y="470" width="60" height="60" as="geometry" />
        </mxCell>
        <mxCell id="igkjnjU97084CTpOAE1u-13" value="8" style="ellipse;whiteSpace=wrap;html=1;aspect=fixed;" vertex="1" parent="1">
          <mxGeometry x="480" y="250" width="60" height="60" as="geometry" />
        </mxCell>
        <mxCell id="igkjnjU97084CTpOAE1u-14" value="e&lt;br&gt;4" style="ellipse;whiteSpace=wrap;html=1;aspect=fixed;" vertex="1" parent="1">
          <mxGeometry x="420" y="360" width="60" height="60" as="geometry" />
        </mxCell>
        <mxCell id="igkjnjU97084CTpOAE1u-15" value="0" style="edgeStyle=none;rounded=0;orthogonalLoop=1;jettySize=auto;html=1;exitX=0;exitY=1;exitDx=0;exitDy=0;entryX=0.647;entryY=0.023;entryDx=0;entryDy=0;entryPerimeter=0;strokeWidth=2;endArrow=none;endFill=0;" edge="1" parent="1">
          <mxGeometry relative="1" as="geometry">
            <mxPoint x="489.96679656440364" y="299.8332034355964" as="sourcePoint" />
            <mxPoint x="459.99999999999994" y="360.0000000000001" as="targetPoint" />
          </mxGeometry>
        </mxCell>
        <mxCell id="igkjnjU97084CTpOAE1u-16" value="1" style="rounded=0;orthogonalLoop=1;jettySize=auto;html=1;exitX=1;exitY=1;exitDx=0;exitDy=0;entryX=0.5;entryY=0;entryDx=0;entryDy=0;strokeWidth=2;endArrow=none;endFill=0;" edge="1" parent="1">
          <mxGeometry relative="1" as="geometry">
            <mxPoint x="530.0032034355963" y="301.21320343559637" as="sourcePoint" />
            <mxPoint x="568.79" y="360" as="targetPoint" />
          </mxGeometry>
        </mxCell>
        <mxCell id="igkjnjU97084CTpOAE1u-17" value="" style="shape=image;verticalLabelPosition=bottom;labelBackgroundColor=#ffffff;verticalAlign=top;aspect=fixed;imageAspect=0;image=data:image/png,iVBORw0KGgoAAAANSUhEUgAAAEIAAAAxCAYAAABu4n+HAAAC4UlEQVRoBe2YgY3CMAxFuwIzsAI7MAIzsAIbsAEbMAETsAALsAE79PR6fKlFceIm7d3pZEtVudYk9su3E67rwwYCXXD4JhAg3koIEAFi2hRCEaGIUMSUQChiyiN6RCgiFDElsKQiXq9Xfzgc+tPplJxk7sPr9drv9/v+8XjM/Wq1/yI9AgBd15mBk9D5fB6SI0Eu/rYSBexutxuu6sxmfrEZxP1+HyCQWMoECVCbzWaAwJ2/uY7HY0/in1Ya99O/9e9mENvttudKmSCkZI4aWHVgWCUFJN4/n8/U8Is+awJBLRMo908jeN5ZkPBHCVJHKlmNAZC1rQlETg2Xy2UAwT1nWnVKIWV6nwKV8q99Vg3idruZaiAYVpvkUvU/DpbegnIsEFKFVT7jsVo+V4PQSpUSLQWncSwQfJ9ekiux0hye99UgtAN4JrF8WG3GKSWppmttt9b4c55XgZBcrS3TEwClBQBAlBIslaFnvpJPFQhkbO0W1oSsqg5TUgFl4WmCgGK+FvBWXHpeBUI7Qq6uNYHuAqGzA4lxLGe1PSZ/j2+NTxWIUqf3BMIqA4IEUUbJ8ENRa9mvgVBCgpE6lMmH+78HocZbWu1/D8K72n8ShLazXLNUcxzLO/WZA1kpSfkw5lpW1SO0fea2M6ROgjlYJKUfbrmG6ZmvFVAVCCYlyVzwSpDt0jorsHNwpigBq9mu54KpBuE5/wOKJEmWzyTE6nLXO96Xdgz5tv6uycGpBqFVKh2PSXJ8iCJxXZRPqXQIHpBss2taNQhte6yWx1hNktblXV2VWEk1nhhyPtUgGFSStXpAbmLvu9w/f7xjePyaQMxVhSegsc9PqYE5m0AwAHs7NV/qFeMEPZ8pHdRAf/kJawaxVsD6Ybc0YAtqMwgGpgGiitwBywog9ZzklxwvNcfns0VAMCjBA2QJW3IsbzyLgfBO+Ff9AsR7ZQJEgJgWaSgiFBGKmBIIRUx5RI948/gCYzFmXv9WRckAAAAASUVORK5CYII=;" vertex="1" parent="1">
          <mxGeometry x="30" y="640" width="52.53" height="39" as="geometry" />
        </mxCell>
        <mxCell id="igkjnjU97084CTpOAE1u-18" value="0" style="edgeStyle=none;rounded=0;orthogonalLoop=1;jettySize=auto;html=1;exitX=0;exitY=1;exitDx=0;exitDy=0;entryX=0.647;entryY=0.023;entryDx=0;entryDy=0;entryPerimeter=0;strokeWidth=2;endArrow=none;endFill=0;" edge="1" parent="1" source="igkjnjU97084CTpOAE1u-20" target="igkjnjU97084CTpOAE1u-21">
          <mxGeometry relative="1" as="geometry" />
        </mxCell>
        <mxCell id="igkjnjU97084CTpOAE1u-19" value="1" style="rounded=0;orthogonalLoop=1;jettySize=auto;html=1;exitX=1;exitY=1;exitDx=0;exitDy=0;entryX=0.5;entryY=0;entryDx=0;entryDy=0;strokeWidth=2;endArrow=none;endFill=0;" edge="1" parent="1" source="igkjnjU97084CTpOAE1u-20" target="igkjnjU97084CTpOAE1u-22">
          <mxGeometry relative="1" as="geometry" />
        </mxCell>
        <mxCell id="igkjnjU97084CTpOAE1u-20" value="4" style="ellipse;whiteSpace=wrap;html=1;aspect=fixed;" vertex="1" parent="1">
          <mxGeometry x="160" y="860" width="60" height="60" as="geometry" />
        </mxCell>
        <mxCell id="igkjnjU97084CTpOAE1u-21" value="g&lt;br&gt;1" style="ellipse;whiteSpace=wrap;html=1;aspect=fixed;" vertex="1" parent="1">
          <mxGeometry x="100" y="970" width="60" height="60" as="geometry" />
        </mxCell>
        <mxCell id="igkjnjU97084CTpOAE1u-22" value="d&lt;br&gt;3" style="ellipse;whiteSpace=wrap;html=1;aspect=fixed;" vertex="1" parent="1">
          <mxGeometry x="220" y="970" width="60" height="60" as="geometry" />
        </mxCell>
        <mxCell id="igkjnjU97084CTpOAE1u-23" value="8" style="ellipse;whiteSpace=wrap;html=1;aspect=fixed;" vertex="1" parent="1">
          <mxGeometry x="100" y="750" width="60" height="60" as="geometry" />
        </mxCell>
        <mxCell id="igkjnjU97084CTpOAE1u-24" value="e&lt;br&gt;4" style="ellipse;whiteSpace=wrap;html=1;aspect=fixed;" vertex="1" parent="1">
          <mxGeometry x="40" y="860" width="60" height="60" as="geometry" />
        </mxCell>
        <mxCell id="igkjnjU97084CTpOAE1u-25" value="0" style="edgeStyle=none;rounded=0;orthogonalLoop=1;jettySize=auto;html=1;exitX=0;exitY=1;exitDx=0;exitDy=0;entryX=0.647;entryY=0.023;entryDx=0;entryDy=0;entryPerimeter=0;strokeWidth=2;endArrow=none;endFill=0;" edge="1" parent="1">
          <mxGeometry relative="1" as="geometry">
            <mxPoint x="109.9667965644037" y="799.8332034355964" as="sourcePoint" />
            <mxPoint x="80" y="860.0000000000001" as="targetPoint" />
          </mxGeometry>
        </mxCell>
        <mxCell id="igkjnjU97084CTpOAE1u-26" value="1" style="rounded=0;orthogonalLoop=1;jettySize=auto;html=1;exitX=1;exitY=1;exitDx=0;exitDy=0;entryX=0.5;entryY=0;entryDx=0;entryDy=0;strokeWidth=2;endArrow=none;endFill=0;" edge="1" parent="1">
          <mxGeometry relative="1" as="geometry">
            <mxPoint x="150.00320343559633" y="801.2132034355964" as="sourcePoint" />
            <mxPoint x="188.78999999999996" y="860" as="targetPoint" />
          </mxGeometry>
        </mxCell>
        <mxCell id="igkjnjU97084CTpOAE1u-27" value="a&lt;br&gt;10" style="ellipse;whiteSpace=wrap;html=1;aspect=fixed;" vertex="1" parent="1">
          <mxGeometry x="230" y="750" width="60" height="60" as="geometry" />
        </mxCell>
        <mxCell id="igkjnjU97084CTpOAE1u-28" value="18" style="ellipse;whiteSpace=wrap;html=1;aspect=fixed;" vertex="1" parent="1">
          <mxGeometry x="160" y="640" width="60" height="60" as="geometry" />
        </mxCell>
        <mxCell id="igkjnjU97084CTpOAE1u-29" value="0" style="edgeStyle=none;rounded=0;orthogonalLoop=1;jettySize=auto;html=1;exitX=0;exitY=1;exitDx=0;exitDy=0;entryX=0.647;entryY=0.023;entryDx=0;entryDy=0;entryPerimeter=0;strokeWidth=2;endArrow=none;endFill=0;" edge="1" parent="1">
          <mxGeometry relative="1" as="geometry">
            <mxPoint x="169.9967965644037" y="689.8332034355963" as="sourcePoint" />
            <mxPoint x="140.03" y="750" as="targetPoint" />
          </mxGeometry>
        </mxCell>
        <mxCell id="igkjnjU97084CTpOAE1u-30" value="1" style="rounded=0;orthogonalLoop=1;jettySize=auto;html=1;exitX=1;exitY=1;exitDx=0;exitDy=0;entryX=0.5;entryY=0;entryDx=0;entryDy=0;strokeWidth=2;endArrow=none;endFill=0;" edge="1" parent="1">
          <mxGeometry relative="1" as="geometry">
            <mxPoint x="210.00320343559633" y="691.2132034355964" as="sourcePoint" />
            <mxPoint x="248.78999999999996" y="750" as="targetPoint" />
          </mxGeometry>
        </mxCell>
        <mxCell id="igkjnjU97084CTpOAE1u-31" value="" style="shape=image;verticalLabelPosition=bottom;labelBackgroundColor=#ffffff;verticalAlign=top;aspect=fixed;imageAspect=0;image=data:image/png,iVBORw0KGgoAAAANSUhEUgAAAEIAAAAxCAYAAABu4n+HAAACjklEQVRoBe2YgY3CMAxFuwIzsAI7MAIzsAIbsAEbMAETsAALsAE79PR6fKmt0tZxUoSELVU9cm4Sv3w7aZs2rCPQBId/AgHirYQAESCGRSEUEYoIRQwJhCKGPKJGhCJCEUMCNRXxer3aw+HQnk6n5CC5jdfrtd3v9+3j8ch91O1fpUYAoGmarImfz+cu2BQ8wO52u+5yR5b5YDGI+/3eQSAwq7HSgONi5VPm6TfVj7WtGMR2u225cozV3mw2syDo73g8dj7P5zOne5dvEQhymVXlbjWUwzOXy2URBADwBcjaVgQiVw1KCeqCpD+VGgr8U6pwg7jdbtlqICWARzG0gpAqUkVVsGrc3SC0UgRlMaUCADArCHwF0DKO18cNgmK3JGtNilXFn7OGLAeEZ3vWONa7C4Tkat0yAQaIvnpyQHjS0ApAfi4QCsKyWyglCKZv6sOiKhVZK/j+ONa/XSAUHMHMGQqYSqEcEIzBNtpPrblxPf9zgdBZYAkEEwcEqTQ2DwiLesbjWH+vBkJ5jXpS9hMg5lJCUH4ChFKHwxNyTl2cDch71RB85oovvl+XGpL9VI0goFTw/bYcECgMEGueLl01QrIu2c7Uh2WV5VsynlJy6u4CQWesUMlboYKzgLBu11NBWtrdIErP/zkgct9rLIGPfdwgtEre74o5ICioax6mgOIGofcNb3pQAIGxBJLCSxrO7Sjj1fX8doNgMEk2dXL0TCb1TO7Hn1QflrYiEKWqWJrgp9TAPIpA0MFa3wpIHdRAUf6EFYNYa8I6nS7VkFqQikEwEe0AtQ48n/j+MAZYBQSdMnmA1LCafVnnUw2EdcBv9QsQ75UJEAFimKShiFBEKGJIIBQx5BE14s3jD9otX1+XeRjpAAAAAElFTkSuQmCC;" vertex="1" parent="1">
          <mxGeometry x="374" y="650" width="39.06" height="29" as="geometry" />
        </mxCell>
        <mxCell id="igkjnjU97084CTpOAE1u-33" value="0" style="edgeStyle=none;rounded=0;orthogonalLoop=1;jettySize=auto;html=1;exitX=0;exitY=1;exitDx=0;exitDy=0;entryX=0.647;entryY=0.023;entryDx=0;entryDy=0;entryPerimeter=0;strokeWidth=2;endArrow=none;endFill=0;" edge="1" parent="1" source="igkjnjU97084CTpOAE1u-35" target="igkjnjU97084CTpOAE1u-36">
          <mxGeometry relative="1" as="geometry" />
        </mxCell>
        <mxCell id="igkjnjU97084CTpOAE1u-34" value="1" style="rounded=0;orthogonalLoop=1;jettySize=auto;html=1;exitX=1;exitY=1;exitDx=0;exitDy=0;entryX=0.5;entryY=0;entryDx=0;entryDy=0;strokeWidth=2;endArrow=none;endFill=0;" edge="1" parent="1" source="igkjnjU97084CTpOAE1u-35" target="igkjnjU97084CTpOAE1u-37">
          <mxGeometry relative="1" as="geometry" />
        </mxCell>
        <mxCell id="igkjnjU97084CTpOAE1u-35" value="4" style="ellipse;whiteSpace=wrap;html=1;aspect=fixed;" vertex="1" parent="1">
          <mxGeometry x="470" y="870" width="60" height="60" as="geometry" />
        </mxCell>
        <mxCell id="igkjnjU97084CTpOAE1u-36" value="g&lt;br&gt;1" style="ellipse;whiteSpace=wrap;html=1;aspect=fixed;" vertex="1" parent="1">
          <mxGeometry x="410" y="980" width="60" height="60" as="geometry" />
        </mxCell>
        <mxCell id="igkjnjU97084CTpOAE1u-37" value="d&lt;br&gt;3" style="ellipse;whiteSpace=wrap;html=1;aspect=fixed;" vertex="1" parent="1">
          <mxGeometry x="530" y="980" width="60" height="60" as="geometry" />
        </mxCell>
        <mxCell id="igkjnjU97084CTpOAE1u-38" value="8" style="ellipse;whiteSpace=wrap;html=1;aspect=fixed;" vertex="1" parent="1">
          <mxGeometry x="410" y="760" width="60" height="60" as="geometry" />
        </mxCell>
        <mxCell id="igkjnjU97084CTpOAE1u-39" value="e&lt;br&gt;4" style="ellipse;whiteSpace=wrap;html=1;aspect=fixed;" vertex="1" parent="1">
          <mxGeometry x="350" y="870" width="60" height="60" as="geometry" />
        </mxCell>
        <mxCell id="igkjnjU97084CTpOAE1u-40" value="0" style="edgeStyle=none;rounded=0;orthogonalLoop=1;jettySize=auto;html=1;exitX=0;exitY=1;exitDx=0;exitDy=0;entryX=0.647;entryY=0.023;entryDx=0;entryDy=0;entryPerimeter=0;strokeWidth=2;endArrow=none;endFill=0;" edge="1" parent="1">
          <mxGeometry relative="1" as="geometry">
            <mxPoint x="419.9667965644037" y="809.8332034355963" as="sourcePoint" />
            <mxPoint x="390" y="870" as="targetPoint" />
          </mxGeometry>
        </mxCell>
        <mxCell id="igkjnjU97084CTpOAE1u-41" value="1" style="rounded=0;orthogonalLoop=1;jettySize=auto;html=1;exitX=1;exitY=1;exitDx=0;exitDy=0;entryX=0.5;entryY=0;entryDx=0;entryDy=0;strokeWidth=2;endArrow=none;endFill=0;" edge="1" parent="1">
          <mxGeometry relative="1" as="geometry">
            <mxPoint x="460.00320343559633" y="811.2132034355964" as="sourcePoint" />
            <mxPoint x="498.78999999999996" y="870" as="targetPoint" />
          </mxGeometry>
        </mxCell>
        <mxCell id="igkjnjU97084CTpOAE1u-42" value="a&lt;br&gt;10" style="ellipse;whiteSpace=wrap;html=1;aspect=fixed;" vertex="1" parent="1">
          <mxGeometry x="540" y="760" width="60" height="60" as="geometry" />
        </mxCell>
        <mxCell id="igkjnjU97084CTpOAE1u-43" value="18" style="ellipse;whiteSpace=wrap;html=1;aspect=fixed;" vertex="1" parent="1">
          <mxGeometry x="470" y="650" width="60" height="60" as="geometry" />
        </mxCell>
        <mxCell id="igkjnjU97084CTpOAE1u-44" value="0" style="edgeStyle=none;rounded=0;orthogonalLoop=1;jettySize=auto;html=1;exitX=0;exitY=1;exitDx=0;exitDy=0;entryX=0.647;entryY=0.023;entryDx=0;entryDy=0;entryPerimeter=0;strokeWidth=2;endArrow=none;endFill=0;" edge="1" parent="1">
          <mxGeometry relative="1" as="geometry">
            <mxPoint x="479.99679656440367" y="699.8332034355963" as="sourcePoint" />
            <mxPoint x="450.03" y="760" as="targetPoint" />
          </mxGeometry>
        </mxCell>
        <mxCell id="igkjnjU97084CTpOAE1u-45" value="1" style="rounded=0;orthogonalLoop=1;jettySize=auto;html=1;exitX=1;exitY=1;exitDx=0;exitDy=0;entryX=0.5;entryY=0;entryDx=0;entryDy=0;strokeWidth=2;endArrow=none;endFill=0;" edge="1" parent="1">
          <mxGeometry relative="1" as="geometry">
            <mxPoint x="520.0032034355963" y="701.2132034355964" as="sourcePoint" />
            <mxPoint x="558.79" y="760" as="targetPoint" />
          </mxGeometry>
        </mxCell>
        <mxCell id="igkjnjU97084CTpOAE1u-46" value="c&lt;br&gt;12" style="ellipse;whiteSpace=wrap;html=1;aspect=fixed;" vertex="1" parent="1">
          <mxGeometry x="617" y="760" width="60" height="60" as="geometry" />
        </mxCell>
        <mxCell id="igkjnjU97084CTpOAE1u-47" value="f&lt;br&gt;13" style="ellipse;whiteSpace=wrap;html=1;aspect=fixed;" vertex="1" parent="1">
          <mxGeometry x="747" y="760" width="60" height="60" as="geometry" />
        </mxCell>
        <mxCell id="igkjnjU97084CTpOAE1u-48" value="25" style="ellipse;whiteSpace=wrap;html=1;aspect=fixed;" vertex="1" parent="1">
          <mxGeometry x="677" y="650" width="60" height="60" as="geometry" />
        </mxCell>
        <mxCell id="igkjnjU97084CTpOAE1u-49" value="0" style="edgeStyle=none;rounded=0;orthogonalLoop=1;jettySize=auto;html=1;exitX=0;exitY=1;exitDx=0;exitDy=0;entryX=0.647;entryY=0.023;entryDx=0;entryDy=0;entryPerimeter=0;strokeWidth=2;endArrow=none;endFill=0;" edge="1" parent="1">
          <mxGeometry relative="1" as="geometry">
            <mxPoint x="686.9967965644037" y="699.8332034355963" as="sourcePoint" />
            <mxPoint x="657.03" y="760" as="targetPoint" />
          </mxGeometry>
        </mxCell>
        <mxCell id="igkjnjU97084CTpOAE1u-50" value="1" style="rounded=0;orthogonalLoop=1;jettySize=auto;html=1;exitX=1;exitY=1;exitDx=0;exitDy=0;entryX=0.5;entryY=0;entryDx=0;entryDy=0;strokeWidth=2;endArrow=none;endFill=0;" edge="1" parent="1">
          <mxGeometry relative="1" as="geometry">
            <mxPoint x="727.0032034355963" y="701.2132034355964" as="sourcePoint" />
            <mxPoint x="765.79" y="760" as="targetPoint" />
          </mxGeometry>
        </mxCell>
        <mxCell id="igkjnjU97084CTpOAE1u-51" value="" style="shape=image;verticalLabelPosition=bottom;labelBackgroundColor=#ffffff;verticalAlign=top;aspect=fixed;imageAspect=0;image=data:image/png,iVBORw0KGgoAAAANSUhEUgAAAEIAAAAxCAYAAABu4n+HAAACs0lEQVRoBe2YbZECMQyG1wIasIAHJKABCzjAAQ5QgAIMYAAHeNibZ28z013apNt2gR/pTAeun8nTt02OrvcyEOicwz8BBzEqwUE4iOmj4IpwRbgipgRcEVMe/ka4IlwRUwItFfF6vfrD4dCfTqfoJksbr9drv9/v+8fjsXRq8fgmbwQAuq57MxxHcCinhh4AdrfbDTVsX/N7NYj7/T5AOJ/Pb3ZK33a7NWHMJ8vc2LrzsS3+rgaBk9RYQeIopdSZ4/E4zH8+n7Hlm7ZVgRBH+YwVAADidrvFus02ADAfIGuXKhCaGjBcQCDz0vIpVRSD4JQ5rZQaWoEQVbSKSKkDKQYhJ8ULnyqEVGDVKIK1iSCpdyi199L2YhCbzWaIBNqGhE1AAIuT5apIKAWkpqZw3VR4DsfUfi8CIXK1ooGA4BoBDii0cbp8p3LamqpwMOcafgWExHjrRAUEn/PrAUy5OhYMEjOgWeBrYBQp4nK5DIbNnZsbggPWGIHFmloBBODWKkUgWoRFcUhOGyBaAYQ1Rptv9X0dBAbiJFUrDmKk4yB+GYSEM+0hpC8nV5BQrN1/wiuKWDO71C9m4tLiJIZp4UweQUKjVuTh1aJGzn7aHjl9RSBYGBCcuFaAwLiUk+IgyZaWVOWGa80Wq68YBE5a+T+qCDNKTh/ncUySKfoZp5Wc/2u0+Tl9xSDklCwnwgwSdYQVB+m3CrDWTKbYvxiEPHLW9QidRA1Sw3btO2k88Kx0Xlsjp68YBIuLZHNONceY2Bjrx5/YnJK2KhAlqlhi5KfUgE1VIFhgrd8KiCKowQq/S8BqY6tBrGWw5BfWY6w5t6SvGgSbST6gJVhLjMJ5HshW6+Xs3QQEG2E8QFqUlmvl2tMMRO6GvzrOQYwn4yAcxPSSuiJcEa6IKQFXxJSHvxEjjz8xsl+85cQQRwAAAABJRU5ErkJggg==;" vertex="1" parent="1">
          <mxGeometry x="60.94" y="1200" width="39.06" height="29" as="geometry" />
        </mxCell>
        <mxCell id="igkjnjU97084CTpOAE1u-53" value="0" style="edgeStyle=none;rounded=0;orthogonalLoop=1;jettySize=auto;html=1;exitX=0;exitY=1;exitDx=0;exitDy=0;entryX=0.647;entryY=0.023;entryDx=0;entryDy=0;entryPerimeter=0;strokeWidth=2;endArrow=none;endFill=0;" edge="1" parent="1" source="igkjnjU97084CTpOAE1u-55" target="igkjnjU97084CTpOAE1u-56">
          <mxGeometry relative="1" as="geometry" />
        </mxCell>
        <mxCell id="igkjnjU97084CTpOAE1u-54" value="1" style="rounded=0;orthogonalLoop=1;jettySize=auto;html=1;exitX=1;exitY=1;exitDx=0;exitDy=0;entryX=0.5;entryY=0;entryDx=0;entryDy=0;strokeWidth=2;endArrow=none;endFill=0;" edge="1" parent="1" source="igkjnjU97084CTpOAE1u-55" target="igkjnjU97084CTpOAE1u-57">
          <mxGeometry relative="1" as="geometry" />
        </mxCell>
        <mxCell id="igkjnjU97084CTpOAE1u-55" value="4" style="ellipse;whiteSpace=wrap;html=1;aspect=fixed;" vertex="1" parent="1">
          <mxGeometry x="220" y="1540" width="60" height="60" as="geometry" />
        </mxCell>
        <mxCell id="igkjnjU97084CTpOAE1u-56" value="g&lt;br&gt;1" style="ellipse;whiteSpace=wrap;html=1;aspect=fixed;" vertex="1" parent="1">
          <mxGeometry x="160" y="1650" width="60" height="60" as="geometry" />
        </mxCell>
        <mxCell id="igkjnjU97084CTpOAE1u-57" value="d&lt;br&gt;3" style="ellipse;whiteSpace=wrap;html=1;aspect=fixed;" vertex="1" parent="1">
          <mxGeometry x="280" y="1650" width="60" height="60" as="geometry" />
        </mxCell>
        <mxCell id="igkjnjU97084CTpOAE1u-58" value="8" style="ellipse;whiteSpace=wrap;html=1;aspect=fixed;" vertex="1" parent="1">
          <mxGeometry x="160" y="1430" width="60" height="60" as="geometry" />
        </mxCell>
        <mxCell id="igkjnjU97084CTpOAE1u-59" value="e&lt;br&gt;4" style="ellipse;whiteSpace=wrap;html=1;aspect=fixed;" vertex="1" parent="1">
          <mxGeometry x="100" y="1540" width="60" height="60" as="geometry" />
        </mxCell>
        <mxCell id="igkjnjU97084CTpOAE1u-60" value="0" style="edgeStyle=none;rounded=0;orthogonalLoop=1;jettySize=auto;html=1;exitX=0;exitY=1;exitDx=0;exitDy=0;entryX=0.647;entryY=0.023;entryDx=0;entryDy=0;entryPerimeter=0;strokeWidth=2;endArrow=none;endFill=0;" edge="1" parent="1">
          <mxGeometry relative="1" as="geometry">
            <mxPoint x="169.9667965644037" y="1479.8332034355963" as="sourcePoint" />
            <mxPoint x="140" y="1540" as="targetPoint" />
          </mxGeometry>
        </mxCell>
        <mxCell id="igkjnjU97084CTpOAE1u-61" value="1" style="rounded=0;orthogonalLoop=1;jettySize=auto;html=1;exitX=1;exitY=1;exitDx=0;exitDy=0;entryX=0.5;entryY=0;entryDx=0;entryDy=0;strokeWidth=2;endArrow=none;endFill=0;" edge="1" parent="1">
          <mxGeometry relative="1" as="geometry">
            <mxPoint x="210.00320343559633" y="1481.2132034355964" as="sourcePoint" />
            <mxPoint x="248.78999999999996" y="1540" as="targetPoint" />
          </mxGeometry>
        </mxCell>
        <mxCell id="igkjnjU97084CTpOAE1u-62" value="a&lt;br&gt;10" style="ellipse;whiteSpace=wrap;html=1;aspect=fixed;" vertex="1" parent="1">
          <mxGeometry x="290" y="1430" width="60" height="60" as="geometry" />
        </mxCell>
        <mxCell id="igkjnjU97084CTpOAE1u-63" value="18" style="ellipse;whiteSpace=wrap;html=1;aspect=fixed;" vertex="1" parent="1">
          <mxGeometry x="220" y="1320" width="60" height="60" as="geometry" />
        </mxCell>
        <mxCell id="igkjnjU97084CTpOAE1u-64" value="0" style="edgeStyle=none;rounded=0;orthogonalLoop=1;jettySize=auto;html=1;exitX=0;exitY=1;exitDx=0;exitDy=0;entryX=0.647;entryY=0.023;entryDx=0;entryDy=0;entryPerimeter=0;strokeWidth=2;endArrow=none;endFill=0;" edge="1" parent="1">
          <mxGeometry relative="1" as="geometry">
            <mxPoint x="229.99679656440367" y="1369.8332034355963" as="sourcePoint" />
            <mxPoint x="200.02999999999997" y="1430" as="targetPoint" />
          </mxGeometry>
        </mxCell>
        <mxCell id="igkjnjU97084CTpOAE1u-65" value="1" style="rounded=0;orthogonalLoop=1;jettySize=auto;html=1;exitX=1;exitY=1;exitDx=0;exitDy=0;entryX=0.5;entryY=0;entryDx=0;entryDy=0;strokeWidth=2;endArrow=none;endFill=0;" edge="1" parent="1">
          <mxGeometry relative="1" as="geometry">
            <mxPoint x="270.00320343559633" y="1371.2132034355964" as="sourcePoint" />
            <mxPoint x="308.78999999999996" y="1430" as="targetPoint" />
          </mxGeometry>
        </mxCell>
        <mxCell id="igkjnjU97084CTpOAE1u-66" value="c&lt;br&gt;12" style="ellipse;whiteSpace=wrap;html=1;aspect=fixed;" vertex="1" parent="1">
          <mxGeometry x="367" y="1320" width="60" height="60" as="geometry" />
        </mxCell>
        <mxCell id="igkjnjU97084CTpOAE1u-67" value="f&lt;br&gt;13" style="ellipse;whiteSpace=wrap;html=1;aspect=fixed;" vertex="1" parent="1">
          <mxGeometry x="497" y="1320" width="60" height="60" as="geometry" />
        </mxCell>
        <mxCell id="igkjnjU97084CTpOAE1u-68" value="25" style="ellipse;whiteSpace=wrap;html=1;aspect=fixed;" vertex="1" parent="1">
          <mxGeometry x="427" y="1210" width="60" height="60" as="geometry" />
        </mxCell>
        <mxCell id="igkjnjU97084CTpOAE1u-69" value="0" style="edgeStyle=none;rounded=0;orthogonalLoop=1;jettySize=auto;html=1;exitX=0;exitY=1;exitDx=0;exitDy=0;entryX=0.647;entryY=0.023;entryDx=0;entryDy=0;entryPerimeter=0;strokeWidth=2;endArrow=none;endFill=0;" edge="1" parent="1">
          <mxGeometry relative="1" as="geometry">
            <mxPoint x="436.99679656440367" y="1259.8332034355963" as="sourcePoint" />
            <mxPoint x="407.03" y="1320" as="targetPoint" />
          </mxGeometry>
        </mxCell>
        <mxCell id="igkjnjU97084CTpOAE1u-70" value="1" style="rounded=0;orthogonalLoop=1;jettySize=auto;html=1;exitX=1;exitY=1;exitDx=0;exitDy=0;entryX=0.5;entryY=0;entryDx=0;entryDy=0;strokeWidth=2;endArrow=none;endFill=0;" edge="1" parent="1">
          <mxGeometry relative="1" as="geometry">
            <mxPoint x="477.00320343559633" y="1261.2132034355964" as="sourcePoint" />
            <mxPoint x="515.79" y="1320" as="targetPoint" />
          </mxGeometry>
        </mxCell>
        <mxCell id="igkjnjU97084CTpOAE1u-71" value="33" style="ellipse;whiteSpace=wrap;html=1;aspect=fixed;" vertex="1" parent="1">
          <mxGeometry x="160" y="1210" width="60" height="60" as="geometry" />
        </mxCell>
        <mxCell id="igkjnjU97084CTpOAE1u-72" value="b&lt;br&gt;15" style="ellipse;whiteSpace=wrap;html=1;aspect=fixed;" vertex="1" parent="1">
          <mxGeometry x="100" y="1320" width="60" height="60" as="geometry" />
        </mxCell>
        <mxCell id="igkjnjU97084CTpOAE1u-73" value="0" style="edgeStyle=none;rounded=0;orthogonalLoop=1;jettySize=auto;html=1;exitX=0;exitY=1;exitDx=0;exitDy=0;entryX=0.647;entryY=0.023;entryDx=0;entryDy=0;entryPerimeter=0;strokeWidth=2;endArrow=none;endFill=0;" edge="1" parent="1">
          <mxGeometry relative="1" as="geometry">
            <mxPoint x="169.96679656440367" y="1259.8332034355963" as="sourcePoint" />
            <mxPoint x="139.99999999999997" y="1320" as="targetPoint" />
          </mxGeometry>
        </mxCell>
        <mxCell id="igkjnjU97084CTpOAE1u-74" value="1" style="rounded=0;orthogonalLoop=1;jettySize=auto;html=1;exitX=1;exitY=1;exitDx=0;exitDy=0;entryX=0.5;entryY=0;entryDx=0;entryDy=0;strokeWidth=2;endArrow=none;endFill=0;" edge="1" parent="1">
          <mxGeometry relative="1" as="geometry">
            <mxPoint x="210.00320343559633" y="1261.2132034355964" as="sourcePoint" />
            <mxPoint x="248.78999999999996" y="1320" as="targetPoint" />
          </mxGeometry>
        </mxCell>
        <mxCell id="igkjnjU97084CTpOAE1u-75" value="" style="shape=image;verticalLabelPosition=bottom;labelBackgroundColor=#ffffff;verticalAlign=top;aspect=fixed;imageAspect=0;image=data:image/png,iVBORw0KGgoAAAANSUhEUgAAAEIAAAAxCAYAAABu4n+HAAAC7UlEQVRoBe2XgbHqIBBF04I12II9WII12IId2IEdWIEV2IAN2IE95M/J986QDCwEyJv//iwzjAkQYA93d3EYvUwEBufwl4CD+CrBQTiIeVBwRbgiXBFzAq6IOQ+PEa4IV8ScQE9FfD6f8XQ6jZfLJbrI2sb7/T4ej8fx9Xqt/bR6fJcYAYBhGMyNv9/v8Xq9TgZiJOBut9sIxGWh7XA4THXZt9V7M4jn8zlBwMhUoQ9Q1N1uN8EI32MnXzJvar2a9mYQ+/1+pKaKIHDCGBcWFCE4MWWcz+epHzVtXZpA4MsYwm+sYIBlKN8IFFCWRd8DZOvSBCKnBp1oChTGoYSYGmS45thaFdUgHo+HqQYMARSKsAyVwalfqaJXRkqtUw1CJ5UyUgaQIVoL8cWKQ63z8301CEX/1CaWUR8wxAHAUAFpuUw4b0l6DsfXPFeB0GmXpEzGYDDgcBOdLs9UTjqWPkNjStwwHF/zXAVCp22dqLIBFycM5j10I2DKvYAR9i0NAZTmWPb1eq8Cofy/vBeEmxIIDIilRo0NQakt9ss8jN2qVIGQkSUgckFObobLWAUQPQJvao3NQZRsHlgYapVfC0JxpAQEY/5bEApwJSBwi18JQunMihHIXJK3MgJ9QLBiicZsebu0HTPhtJI9QdMqughZ40jBgLCMLF3P2kuurwoEk7J57gFWISPoIhW7NNFGP5WxqVKSrlPflrZXg9ANMbeQ3EjgUABVlynarYsZ82us5WK5feT6q0HolGInvVwUaSszYLgqbbk4w1woZsvLFGtUg9BFKOceIRS+wXBq6ekqhuRUE65T81wNgsUkWcu/azYVfkM2sTJKOLbluQlEjSrWbPan1MCemkAwgVJkSaxYAwHXQQm5/yBr5rTGNoPYasP6Y9cbcApGMwgmJviRCayLU2oDsXaM7zlfbI1lWxcQTMrmAdKj9JyrdD/dQJQu+K+OcxDfk3EQDmLupK4IV4QrYk7AFTHn4THiy+MPA5Y5/QR+Q2oAAAAASUVORK5CYII=;" vertex="1" parent="1">
          <mxGeometry x="395" y="1760" width="39.06" height="29" as="geometry" />
        </mxCell>
        <mxCell id="igkjnjU97084CTpOAE1u-77" value="0" style="edgeStyle=none;rounded=0;orthogonalLoop=1;jettySize=auto;html=1;exitX=0;exitY=1;exitDx=0;exitDy=0;entryX=0.647;entryY=0.023;entryDx=0;entryDy=0;entryPerimeter=0;strokeWidth=2;endArrow=none;endFill=0;" edge="1" parent="1" source="igkjnjU97084CTpOAE1u-79" target="igkjnjU97084CTpOAE1u-80">
          <mxGeometry relative="1" as="geometry" />
        </mxCell>
        <mxCell id="igkjnjU97084CTpOAE1u-78" value="1" style="rounded=0;orthogonalLoop=1;jettySize=auto;html=1;exitX=1;exitY=1;exitDx=0;exitDy=0;entryX=0.5;entryY=0;entryDx=0;entryDy=0;strokeWidth=2;endArrow=none;endFill=0;" edge="1" parent="1" source="igkjnjU97084CTpOAE1u-79" target="igkjnjU97084CTpOAE1u-81">
          <mxGeometry relative="1" as="geometry" />
        </mxCell>
        <mxCell id="igkjnjU97084CTpOAE1u-79" value="4" style="ellipse;whiteSpace=wrap;html=1;aspect=fixed;" vertex="1" parent="1">
          <mxGeometry x="659.06" y="2200" width="60" height="60" as="geometry" />
        </mxCell>
        <mxCell id="igkjnjU97084CTpOAE1u-80" value="g&lt;br&gt;1" style="ellipse;whiteSpace=wrap;html=1;aspect=fixed;" vertex="1" parent="1">
          <mxGeometry x="599.06" y="2310" width="60" height="60" as="geometry" />
        </mxCell>
        <mxCell id="igkjnjU97084CTpOAE1u-81" value="d&lt;br&gt;3" style="ellipse;whiteSpace=wrap;html=1;aspect=fixed;" vertex="1" parent="1">
          <mxGeometry x="719.06" y="2310" width="60" height="60" as="geometry" />
        </mxCell>
        <mxCell id="igkjnjU97084CTpOAE1u-82" value="8" style="ellipse;whiteSpace=wrap;html=1;aspect=fixed;" vertex="1" parent="1">
          <mxGeometry x="599.06" y="2090" width="60" height="60" as="geometry" />
        </mxCell>
        <mxCell id="igkjnjU97084CTpOAE1u-83" value="e&lt;br&gt;4" style="ellipse;whiteSpace=wrap;html=1;aspect=fixed;" vertex="1" parent="1">
          <mxGeometry x="539.06" y="2200" width="60" height="60" as="geometry" />
        </mxCell>
        <mxCell id="igkjnjU97084CTpOAE1u-84" value="0" style="edgeStyle=none;rounded=0;orthogonalLoop=1;jettySize=auto;html=1;exitX=0;exitY=1;exitDx=0;exitDy=0;entryX=0.647;entryY=0.023;entryDx=0;entryDy=0;entryPerimeter=0;strokeWidth=2;endArrow=none;endFill=0;" edge="1" parent="1">
          <mxGeometry relative="1" as="geometry">
            <mxPoint x="609.0267965644036" y="2139.8332034355963" as="sourcePoint" />
            <mxPoint x="579.06" y="2200" as="targetPoint" />
          </mxGeometry>
        </mxCell>
        <mxCell id="igkjnjU97084CTpOAE1u-85" value="1" style="rounded=0;orthogonalLoop=1;jettySize=auto;html=1;exitX=1;exitY=1;exitDx=0;exitDy=0;entryX=0.5;entryY=0;entryDx=0;entryDy=0;strokeWidth=2;endArrow=none;endFill=0;" edge="1" parent="1">
          <mxGeometry relative="1" as="geometry">
            <mxPoint x="649.0632034355963" y="2141.2132034355964" as="sourcePoint" />
            <mxPoint x="687.8499999999999" y="2200" as="targetPoint" />
          </mxGeometry>
        </mxCell>
        <mxCell id="igkjnjU97084CTpOAE1u-86" value="a&lt;br&gt;10" style="ellipse;whiteSpace=wrap;html=1;aspect=fixed;" vertex="1" parent="1">
          <mxGeometry x="729.06" y="2090" width="60" height="60" as="geometry" />
        </mxCell>
        <mxCell id="igkjnjU97084CTpOAE1u-87" value="18" style="ellipse;whiteSpace=wrap;html=1;aspect=fixed;" vertex="1" parent="1">
          <mxGeometry x="659.06" y="1980" width="60" height="60" as="geometry" />
        </mxCell>
        <mxCell id="igkjnjU97084CTpOAE1u-88" value="0" style="edgeStyle=none;rounded=0;orthogonalLoop=1;jettySize=auto;html=1;exitX=0;exitY=1;exitDx=0;exitDy=0;entryX=0.647;entryY=0.023;entryDx=0;entryDy=0;entryPerimeter=0;strokeWidth=2;endArrow=none;endFill=0;" edge="1" parent="1">
          <mxGeometry relative="1" as="geometry">
            <mxPoint x="669.0567965644036" y="2029.8332034355963" as="sourcePoint" />
            <mxPoint x="639.0899999999999" y="2090" as="targetPoint" />
          </mxGeometry>
        </mxCell>
        <mxCell id="igkjnjU97084CTpOAE1u-89" value="1" style="rounded=0;orthogonalLoop=1;jettySize=auto;html=1;exitX=1;exitY=1;exitDx=0;exitDy=0;entryX=0.5;entryY=0;entryDx=0;entryDy=0;strokeWidth=2;endArrow=none;endFill=0;" edge="1" parent="1">
          <mxGeometry relative="1" as="geometry">
            <mxPoint x="709.0632034355963" y="2031.2132034355964" as="sourcePoint" />
            <mxPoint x="747.8499999999999" y="2090" as="targetPoint" />
          </mxGeometry>
        </mxCell>
        <mxCell id="igkjnjU97084CTpOAE1u-90" value="c&lt;br&gt;12" style="ellipse;whiteSpace=wrap;html=1;aspect=fixed;" vertex="1" parent="1">
          <mxGeometry x="335" y="1980" width="60" height="60" as="geometry" />
        </mxCell>
        <mxCell id="igkjnjU97084CTpOAE1u-91" value="f&lt;br&gt;13" style="ellipse;whiteSpace=wrap;html=1;aspect=fixed;" vertex="1" parent="1">
          <mxGeometry x="465" y="1980" width="60" height="60" as="geometry" />
        </mxCell>
        <mxCell id="igkjnjU97084CTpOAE1u-92" value="25" style="ellipse;whiteSpace=wrap;html=1;aspect=fixed;" vertex="1" parent="1">
          <mxGeometry x="395" y="1870" width="60" height="60" as="geometry" />
        </mxCell>
        <mxCell id="igkjnjU97084CTpOAE1u-93" value="0" style="edgeStyle=none;rounded=0;orthogonalLoop=1;jettySize=auto;html=1;exitX=0;exitY=1;exitDx=0;exitDy=0;entryX=0.647;entryY=0.023;entryDx=0;entryDy=0;entryPerimeter=0;strokeWidth=2;endArrow=none;endFill=0;" edge="1" parent="1">
          <mxGeometry relative="1" as="geometry">
            <mxPoint x="404.99679656440367" y="1919.8332034355963" as="sourcePoint" />
            <mxPoint x="375.03" y="1980" as="targetPoint" />
          </mxGeometry>
        </mxCell>
        <mxCell id="igkjnjU97084CTpOAE1u-94" value="1" style="rounded=0;orthogonalLoop=1;jettySize=auto;html=1;exitX=1;exitY=1;exitDx=0;exitDy=0;entryX=0.5;entryY=0;entryDx=0;entryDy=0;strokeWidth=2;endArrow=none;endFill=0;" edge="1" parent="1">
          <mxGeometry relative="1" as="geometry">
            <mxPoint x="445.00320343559633" y="1921.2132034355964" as="sourcePoint" />
            <mxPoint x="483.78999999999996" y="1980" as="targetPoint" />
          </mxGeometry>
        </mxCell>
        <mxCell id="igkjnjU97084CTpOAE1u-95" value="33" style="ellipse;whiteSpace=wrap;html=1;aspect=fixed;" vertex="1" parent="1">
          <mxGeometry x="599.06" y="1870" width="60" height="60" as="geometry" />
        </mxCell>
        <mxCell id="igkjnjU97084CTpOAE1u-96" value="b&lt;br&gt;15" style="ellipse;whiteSpace=wrap;html=1;aspect=fixed;" vertex="1" parent="1">
          <mxGeometry x="539.06" y="1980" width="60" height="60" as="geometry" />
        </mxCell>
        <mxCell id="igkjnjU97084CTpOAE1u-97" value="0" style="edgeStyle=none;rounded=0;orthogonalLoop=1;jettySize=auto;html=1;exitX=0;exitY=1;exitDx=0;exitDy=0;entryX=0.647;entryY=0.023;entryDx=0;entryDy=0;entryPerimeter=0;strokeWidth=2;endArrow=none;endFill=0;" edge="1" parent="1">
          <mxGeometry relative="1" as="geometry">
            <mxPoint x="609.0267965644036" y="1919.8332034355963" as="sourcePoint" />
            <mxPoint x="579.06" y="1980" as="targetPoint" />
          </mxGeometry>
        </mxCell>
        <mxCell id="igkjnjU97084CTpOAE1u-98" value="1" style="rounded=0;orthogonalLoop=1;jettySize=auto;html=1;exitX=1;exitY=1;exitDx=0;exitDy=0;entryX=0.5;entryY=0;entryDx=0;entryDy=0;strokeWidth=2;endArrow=none;endFill=0;" edge="1" parent="1">
          <mxGeometry relative="1" as="geometry">
            <mxPoint x="649.0632034355963" y="1921.2132034355964" as="sourcePoint" />
            <mxPoint x="687.8499999999999" y="1980" as="targetPoint" />
          </mxGeometry>
        </mxCell>
        <mxCell id="igkjnjU97084CTpOAE1u-99" value="58" style="ellipse;whiteSpace=wrap;html=1;aspect=fixed;" vertex="1" parent="1">
          <mxGeometry x="489.05999999999995" y="1760" width="60" height="60" as="geometry" />
        </mxCell>
        <mxCell id="igkjnjU97084CTpOAE1u-100" value="0" style="edgeStyle=none;rounded=0;orthogonalLoop=1;jettySize=auto;html=1;exitX=0;exitY=1;exitDx=0;exitDy=0;entryX=0.647;entryY=0.023;entryDx=0;entryDy=0;entryPerimeter=0;strokeWidth=2;endArrow=none;endFill=0;" edge="1" parent="1" source="igkjnjU97084CTpOAE1u-99">
          <mxGeometry relative="1" as="geometry">
            <mxPoint x="479.0567965644037" y="1820.0032034355963" as="sourcePoint" />
            <mxPoint x="449.0899999999998" y="1880.17" as="targetPoint" />
          </mxGeometry>
        </mxCell>
        <mxCell id="igkjnjU97084CTpOAE1u-101" value="1" style="rounded=0;orthogonalLoop=1;jettySize=auto;html=1;exitX=1;exitY=1;exitDx=0;exitDy=0;strokeWidth=2;endArrow=none;endFill=0;" edge="1" parent="1" source="igkjnjU97084CTpOAE1u-99" target="igkjnjU97084CTpOAE1u-95">
          <mxGeometry relative="1" as="geometry">
            <mxPoint x="455.00320343559633" y="1931.2132034355964" as="sourcePoint" />
            <mxPoint x="493.78999999999996" y="1990" as="targetPoint" />
          </mxGeometry>
        </mxCell>
      </root>
    </mxGraphModel>
  </diagram>
</mxfile>
